<svg width="86" height="85" viewBox="0 0 86 85" fill="none" xmlns="http://www.w3.org/2000/svg">
<path d="M27.7124 78.3623C27.4125 78.3623 27.024 78.3395 26.5468 78.2945C26.0696 78.2607 25.5652 78.1988 25.0335 78.1083C24.5019 78.0179 23.9975 77.8941 23.5203 77.7359C23.0431 77.5777 22.6546 77.3803 22.3547 77.1433C22.0548 76.8952 21.9048 76.6016 21.9048 76.263C21.9048 75.789 22.0684 75.3937 22.3956 75.0779C22.7228 74.7504 23.1386 74.4854 23.643 74.2822C24.1474 74.0791 24.6723 73.9267 25.2176 73.8251C25.7766 73.7124 26.281 73.6447 26.7308 73.6219C26.8672 73.4188 27.0512 73.1537 27.283 72.8263C27.5148 72.4877 27.7669 72.1263 28.0396 71.7428C28.3259 71.3476 28.6122 70.964 28.8985 70.5915C29.1984 70.2191 29.4779 69.8863 29.7369 69.5927C29.9959 69.2879 30.2141 69.062 30.3913 68.9155C30.5958 68.7573 30.8071 68.6504 31.0252 68.5938C31.257 68.5372 31.5092 68.5092 31.7819 68.5092C31.8909 68.5092 32.0409 68.5319 32.2317 68.5769C32.4362 68.6108 32.5453 68.6785 32.5589 68.7801C32.5316 68.8816 32.4498 68.989 32.3135 69.1017C32.1908 69.2033 32.0886 69.2938 32.0068 69.3726C31.107 70.1963 30.3368 70.9471 29.696 71.6242C29.0689 72.3014 28.5168 72.9617 28.0396 73.605C28.7758 73.6161 29.5529 73.6727 30.3708 73.7743C31.1888 73.8648 32 74.0055 32.8043 74.1976C33.6087 74.378 34.3585 74.6208 35.0538 74.9255C35.749 75.2192 36.3352 75.5747 36.8124 75.9921C37.1941 75.8001 37.6099 75.563 38.0598 75.2811C38.5233 74.9874 38.9596 74.6605 39.3686 74.2991C39.7912 73.9378 40.1388 73.5484 40.4115 73.131C40.6842 72.7136 40.8205 72.2845 40.8205 71.8443C40.8205 71.246 40.6024 70.7328 40.1661 70.3037C39.7298 69.8747 39.1573 69.5191 38.4484 69.2372C37.7395 68.9552 36.9828 68.7351 36.1785 68.5769C35.3741 68.4187 34.5903 68.306 33.8268 68.2383C33.077 68.1706 32.4362 68.1367 31.9046 68.1367C30.8548 68.1367 29.8255 68.2214 28.8167 68.3907C27.8215 68.5489 26.8263 68.7742 25.8311 69.0679C25.6948 69.1017 25.5107 69.1636 25.2789 69.2541C25.0608 69.3329 24.8427 69.4065 24.6246 69.4742C24.4065 69.5419 24.236 69.5757 24.1133 69.5757C23.8134 69.5757 23.6634 69.4572 23.6634 69.2202C23.6634 68.9943 23.827 68.797 24.1542 68.6277C24.4814 68.4584 24.9109 68.3118 25.4425 68.1875C25.9878 68.0632 26.5741 67.9674 27.2012 67.8997C27.8283 67.8209 28.4418 67.7584 29.0416 67.7135C29.6415 67.6685 30.1732 67.6399 30.6367 67.6288C31.1139 67.6061 31.4547 67.595 31.6592 67.595C32.2045 67.595 32.8316 67.623 33.5405 67.6796C34.2631 67.7246 35.0129 67.8092 35.7899 67.9336C36.5806 68.0463 37.3441 68.2103 38.0803 68.4245C38.8301 68.6277 39.5049 68.8875 40.1048 69.2033C40.7046 69.5191 41.1818 69.9032 41.5362 70.3545C41.9043 70.8058 42.0884 71.3306 42.0884 71.929C42.0884 72.448 41.9316 72.9448 41.618 73.4188C41.3044 73.8928 40.9023 74.333 40.4115 74.7393C39.9207 75.1456 39.4095 75.5123 38.8778 75.8397C38.3461 76.1556 37.8553 76.4212 37.4054 76.6354C37.4463 76.6804 37.4804 76.7312 37.5077 76.7878C37.5486 76.8444 37.569 76.9005 37.569 76.9571C37.569 77.0587 37.4804 77.1095 37.3032 77.1095C37.2487 77.1095 37.1805 77.0814 37.0987 77.0248C37.0169 76.9571 36.9556 76.9063 36.9147 76.8725C35.4423 77.4592 33.9427 77.8544 32.4158 78.0575C30.9025 78.2607 29.3348 78.3623 27.7124 78.3623ZM27.8965 77.956C29.3279 77.956 30.7458 77.8036 32.1499 77.4989C33.5678 77.1941 34.9175 76.7767 36.1989 76.2461C35.6127 75.8059 34.8833 75.4276 34.0108 75.1118C33.152 74.7843 32.2454 74.5362 31.2911 74.3669C30.3504 74.1865 29.4642 74.096 28.6326 74.096C28.5099 74.096 28.3873 74.096 28.2646 74.096C28.1419 74.096 28.026 74.1018 27.9169 74.1129L27.692 74.1298C27.4602 74.4573 27.2148 74.807 26.9558 75.1795C26.7104 75.5519 26.4991 75.9355 26.3219 76.3307C26.1583 76.7259 26.0765 77.1153 26.0765 77.4989C26.0765 77.6793 25.9811 77.7867 25.7902 77.8205C26.1447 77.8771 26.4923 77.911 26.8331 77.9221C27.1876 77.9448 27.542 77.956 27.8965 77.956ZM25.2994 77.7189C25.2312 77.6623 25.1835 77.5893 25.1562 77.4989C25.129 77.42 25.1153 77.3407 25.1153 77.2618C25.1153 77.0814 25.1631 76.8555 25.2585 76.5847C25.3539 76.3027 25.4698 76.009 25.6061 75.7043C25.7561 75.3885 25.8993 75.0948 26.0356 74.824C26.1856 74.5531 26.3082 74.333 26.4037 74.1637C25.9674 74.2203 25.5039 74.333 25.0131 74.5023C24.5359 74.6605 24.1269 74.8859 23.7861 75.1795C23.4589 75.4731 23.2953 75.8456 23.2953 76.2968C23.2953 76.545 23.4112 76.7709 23.643 76.974C23.8884 77.1661 24.1678 77.3237 24.4814 77.4481C24.795 77.5724 25.0676 77.6623 25.2994 77.7189ZM48.0392 77.4142C47.6029 77.4142 47.2757 77.3296 47.0576 77.1603C46.8395 76.9799 46.6963 76.7539 46.6281 76.4831C46.5736 76.2122 46.5532 75.9413 46.5668 75.6704C46.3623 75.8964 46.1101 76.1445 45.8102 76.4153C45.5103 76.6751 45.1831 76.9005 44.8286 77.0925C44.4741 77.2846 44.1129 77.3803 43.7448 77.3803C43.4721 77.3803 43.2471 77.3296 43.0699 77.228C42.8927 77.1153 42.8041 76.9402 42.8041 76.7032C42.8041 76.308 42.9541 75.8905 43.254 75.4504C43.5676 75.0102 43.9629 74.5928 44.44 74.1976C44.9172 73.7913 45.4285 73.4638 45.9738 73.2156C46.5191 72.9675 47.0303 72.8432 47.5075 72.8432C47.6438 72.8432 47.8347 72.8659 48.08 72.9109C48.3254 72.9559 48.5435 73.0236 48.7344 73.1141C48.9389 73.2045 49.0412 73.3283 49.0412 73.4865C49.0412 73.5653 48.9798 73.6108 48.8571 73.6219C48.7344 73.6331 48.6458 73.6669 48.5913 73.7235C48.1959 74.1187 47.9982 74.7562 47.9982 75.6366C47.9982 75.7493 48.0051 75.9016 48.0187 76.0937C48.0323 76.2857 48.08 76.455 48.1618 76.6016C48.2573 76.7481 48.4004 76.8217 48.5913 76.8217C48.8776 76.8217 49.1843 76.7201 49.5115 76.5169C49.8387 76.3138 50.1659 76.0709 50.4931 75.789C50.8203 75.4953 51.1202 75.2303 51.3929 74.9933C51.4201 74.9594 51.4474 74.9425 51.4747 74.9425C51.5428 74.9425 51.5973 74.9763 51.6382 75.044C51.6928 75.1007 51.6928 75.1514 51.6382 75.1964C51.3111 75.5123 50.9907 75.7948 50.6771 76.0429C50.3772 76.291 50.0636 76.528 49.7365 76.754C49.1094 77.1941 48.5435 77.4142 48.0392 77.4142ZM44.849 76.6016C45.1626 76.455 45.4761 76.2233 45.7897 75.9075C46.1169 75.5916 46.4236 75.2303 46.7099 74.824C47.0098 74.4176 47.2621 74.0113 47.4666 73.605C47.1394 73.605 46.7713 73.7066 46.3623 73.9098C45.9533 74.1018 45.5648 74.3499 45.1967 74.6547C44.8286 74.9483 44.5218 75.2583 44.2765 75.5858C44.0447 75.9016 43.9288 76.1895 43.9288 76.4492C43.9288 76.6635 44.0311 76.7709 44.2356 76.7709C44.3855 76.7709 44.59 76.7143 44.849 76.6016ZM47.3439 84.3892C46.894 84.3892 46.4373 84.3273 45.9738 84.203C45.5103 84.0787 45.1217 83.8755 44.8081 83.5936C44.4946 83.3227 44.3378 82.973 44.3378 82.5439C44.3378 82.0588 44.5218 81.5958 44.8899 81.1557C45.258 80.7155 45.7488 80.3092 46.3623 79.9367C46.9622 79.5643 47.637 79.2257 48.3868 78.921C49.123 78.6162 49.8728 78.3453 50.6362 78.1083C51.3997 77.8824 52.1222 77.6962 52.8039 77.5496C53.4855 77.4031 54.0649 77.3015 54.5421 77.2449C54.6375 76.974 54.7329 76.6635 54.8284 76.3138C54.9238 75.9641 55.0124 75.6138 55.0942 75.2641C55.1896 74.9028 55.2646 74.5869 55.3191 74.3161C55.1555 74.5642 54.9442 74.852 54.6852 75.1795C54.4262 75.507 54.1331 75.817 53.8059 76.1106C53.4787 76.4042 53.1447 76.6524 52.8039 76.8555C52.4767 77.0476 52.1563 77.1433 51.8427 77.1433C51.4747 77.1433 51.2224 77.0359 51.0861 76.8217C50.9634 76.5958 50.9021 76.3535 50.9021 76.0937C50.9021 75.9016 50.9498 75.6763 51.0452 75.4165C51.1543 75.1567 51.2906 74.9086 51.4542 74.6716C51.6314 74.4235 51.8359 74.2203 52.0677 74.0621C52.3131 73.8928 52.5653 73.8082 52.8243 73.8082C52.9061 73.8082 53.0084 73.8251 53.1311 73.859C53.2674 73.8928 53.3356 73.9547 53.3356 74.0452C53.3356 74.0902 53.2674 74.1865 53.1311 74.333C53.0084 74.4795 52.8652 74.6488 52.7016 74.8409C52.538 75.0329 52.388 75.2303 52.2517 75.4334C52.129 75.6255 52.0677 75.8059 52.0677 75.9752C52.0677 76.0657 52.0813 76.1614 52.1086 76.263C52.1359 76.3646 52.2244 76.4153 52.3744 76.4153C52.6062 76.4153 52.9197 76.263 53.3151 75.9582C53.7105 75.6535 54.1195 75.253 54.5421 74.7562C54.9647 74.2484 55.3328 73.6897 55.6463 73.0802C55.6736 72.9448 55.7759 72.8601 55.9531 72.8263C56.1303 72.7813 56.2871 72.7585 56.4234 72.7585C56.5052 72.7585 56.6211 72.7755 56.7711 72.8093C56.9347 72.8432 57.0164 72.9051 57.0164 72.9956C57.0164 73.1649 56.9687 73.4415 56.8733 73.8251C56.7779 74.2087 56.662 74.6266 56.5257 75.0779C56.3894 75.5181 56.253 75.9355 56.1167 76.3307C55.994 76.7259 55.8986 77.0248 55.8304 77.228C55.9667 77.228 56.144 77.2391 56.3621 77.2618C56.5938 77.2729 56.7983 77.3126 56.9755 77.3803C57.1528 77.4481 57.2414 77.5608 57.2414 77.7189C57.2414 77.7755 57.2209 77.8036 57.18 77.8036C57.1664 77.8036 57.146 77.7978 57.1187 77.7867C57.0914 77.7867 57.0573 77.7867 57.0164 77.7867C56.7438 77.674 56.4507 77.6174 56.1371 77.6174C56.0689 77.6174 56.0008 77.6174 55.9326 77.6174C55.8644 77.6174 55.7963 77.6232 55.7281 77.6343C55.4418 78.3903 55.0465 79.1638 54.5421 79.9537C54.0377 80.7552 53.431 81.4884 52.7221 82.1545C52.0132 82.8206 51.2088 83.3565 50.309 83.7628C49.4229 84.1803 48.4345 84.3892 47.3439 84.3892ZM47.5688 84.0337C48.3186 84.0337 49.0139 83.8983 49.6547 83.6274C50.2954 83.3565 50.8748 82.9952 51.3929 82.5439C51.9245 82.0926 52.3949 81.59 52.8039 81.0372C53.2129 80.4843 53.5605 79.914 53.8468 79.3273C54.1331 78.7405 54.3512 78.1819 54.5012 77.6512C54.0922 77.6962 53.5809 77.7867 52.9675 77.9221C52.3676 78.0686 51.7269 78.2496 51.0452 78.4639C50.3635 78.6898 49.6887 78.9437 49.0207 79.2257C48.3527 79.5077 47.746 79.8182 47.2007 80.1568C46.6554 80.5065 46.2192 80.8737 45.892 81.2573C45.5648 81.6408 45.4012 82.0418 45.4012 82.4593V82.7301C45.4012 83.001 45.517 83.2322 45.7488 83.4243C45.9669 83.6274 46.2464 83.7798 46.5872 83.8814C46.9144 83.9829 47.2416 84.0337 47.5688 84.0337ZM59.8767 77.7697C59.4404 77.7697 58.9632 77.6909 58.4452 77.5327C57.9408 77.3745 57.5046 77.1433 57.1365 76.8386C56.782 76.5339 56.6047 76.1672 56.6047 75.7382C56.6047 75.5916 56.6388 75.4562 56.707 75.3319C56.7888 75.2075 56.9387 75.1456 57.1569 75.1456C57.2523 75.1456 57.3682 75.1795 57.5045 75.2472C57.6409 75.3038 57.7431 75.3599 57.8113 75.4165C58.1248 75.1795 58.4452 74.8859 58.7724 74.5362C59.0996 74.1748 59.4336 73.814 59.7744 73.4527C60.1288 73.0913 60.4902 72.7813 60.8583 72.5215C61.24 72.2506 61.6421 72.0872 62.0649 72.0306C62.1058 72.0194 62.1806 72.0136 62.2898 72.0136C62.5621 72.0136 62.8215 72.0644 63.0669 72.166C63.3257 72.2676 63.421 72.4311 63.3532 72.657C63.3257 72.7585 63.196 72.8151 62.9647 72.8263C62.7461 72.8374 62.4943 72.8432 62.208 72.8432C61.9352 72.8432 61.6967 72.8829 61.4922 72.9617C61.2877 73.0405 61.1854 73.2045 61.1854 73.4527C61.1854 73.5431 61.2468 73.6839 61.3695 73.8759C61.4922 74.0679 61.6285 74.2933 61.7785 74.5531C61.9281 74.8012 62.0508 75.0668 62.1467 75.3488C62.2419 75.6308 62.2694 75.9075 62.2285 76.1783C62.378 76.1894 62.603 76.1725 62.9033 76.1276C63.2164 76.0709 63.5577 75.9694 63.9258 75.8228C64.3073 75.6646 64.662 75.4392 64.9892 75.1456C65.0301 75.1118 65.071 75.0948 65.1119 75.0948C65.1796 75.0948 65.2275 75.1229 65.255 75.1795C65.2818 75.2361 65.2755 75.2869 65.2346 75.3319C65.0978 75.4784 64.9138 75.6424 64.6824 75.8228C64.4639 76.0032 64.198 76.1556 63.8849 76.2799C63.5168 76.4265 63.1692 76.528 62.842 76.5847C62.5148 76.6296 62.2898 76.6465 62.1671 76.6354C62.0304 77.0306 61.7307 77.3184 61.2672 77.4989C60.8037 77.6793 60.3402 77.7697 59.8767 77.7697ZM61.1036 76.1614V76.1106C61.1036 75.9075 61.0423 75.6593 60.9196 75.3657C60.7969 75.0721 60.6674 74.7732 60.5311 74.4684C60.3947 74.1526 60.2993 73.8759 60.2448 73.6389C59.9176 73.9886 59.5836 74.3219 59.2428 74.6377C58.9156 74.9536 58.5611 75.27 58.1794 75.5858C58.6565 75.7323 59.1337 75.8625 59.6108 75.9752C60.1016 76.0768 60.5992 76.1387 61.1036 76.1614ZM59.754 77.2788C59.9857 77.2788 60.2243 77.2222 60.4697 77.1095C60.7151 76.9968 60.9264 76.8158 61.1036 76.5677C60.5583 76.5566 59.9857 76.5058 59.3859 76.4153C58.786 76.3138 58.2475 76.1503 57.7704 75.9244C57.7976 76.4212 57.9953 76.7709 58.3634 76.974C58.7451 77.1772 59.2086 77.2788 59.754 77.2788Z" fill="white"/>
<path d="M0 63.0788V49.2272H10.0323V50.7152H2.02607V55.3954H9.28068V56.8836H2.02607V63.0788H0ZM27.6194 56.153C27.6194 57.6137 27.3008 58.8765 26.6635 59.9405C26.0263 61.0049 25.1522 61.8255 24.0411 62.4027C22.93 62.9794 21.661 63.2682 20.2341 63.2682C18.8071 63.2682 17.5381 62.9794 16.4271 62.4027C15.3159 61.8255 14.4418 61.0049 13.8046 59.9405C13.1674 58.8765 12.8487 57.6137 12.8487 56.153C12.8487 54.6923 13.1674 53.4294 13.8046 52.3655C14.4418 51.3013 15.3159 50.4807 16.4271 49.9036C17.5381 49.3264 18.8071 49.0378 20.2341 49.0378C21.661 49.0378 22.93 49.3264 24.0411 49.9036C25.1522 50.4807 26.0263 51.3013 26.6635 52.3655C27.3008 53.4294 27.6194 54.6923 27.6194 56.153ZM25.6587 56.153C25.6587 54.9536 25.4163 53.9415 24.9316 53.1162C24.4523 52.2909 23.8014 51.6666 22.9791 51.2427C22.1621 50.8189 21.2471 50.607 20.2341 50.607C19.221 50.607 18.3033 50.8189 17.4809 51.2427C16.6639 51.6666 16.0131 52.2909 15.5284 53.1162C15.0491 53.9415 14.8094 54.9536 14.8094 56.153C14.8094 57.3523 15.0491 58.3644 15.5284 59.1897C16.0131 60.0151 16.6639 60.6394 17.4809 61.0631C18.3033 61.4869 19.221 61.699 20.2341 61.699C21.2471 61.699 22.1621 61.4869 22.9791 61.0631C23.8014 60.6394 24.4523 60.0151 24.9316 59.1897C25.4163 58.3644 25.6587 57.3523 25.6587 56.153ZM31.0261 63.0788V49.2272H36.6795C37.9866 49.2272 39.0596 49.4121 39.8983 49.7819C40.7371 50.1471 41.358 50.6498 41.761 51.2901C42.164 51.9306 42.3656 52.6586 42.3656 53.4749C42.3656 54.2907 42.164 55.0145 41.761 55.6456C41.358 56.2768 40.7398 56.773 39.9064 57.1338C39.0732 57.4899 38.0084 57.6682 36.7122 57.6682H32.1372V56.153H36.6468C37.54 56.153 38.2589 56.0451 38.8036 55.8281C39.3537 55.6118 39.7512 55.3054 39.9964 54.9086C40.2469 54.5071 40.3721 54.0294 40.3721 53.4749C40.3721 52.9199 40.2469 52.4353 39.9964 52.0205C39.7458 51.6058 39.3455 51.2856 38.7954 51.0602C38.2453 50.8302 37.5182 50.7152 36.6142 50.7152H33.0522V63.0788H31.0261ZM38.9016 56.8566L43.0191 63.0788H40.6663L36.6142 56.8566H38.9016ZM45.7416 63.0788V49.2272H55.8392V50.7152H47.7677V55.3954H55.3164V56.8836H47.7677V61.5911H55.97V63.0788H45.7416ZM68.6408 52.6903C68.543 52.0047 68.1455 51.4724 67.4483 51.094C66.7511 50.7152 65.8961 50.5258 64.8832 50.5258C64.1425 50.5258 63.4939 50.625 62.9386 50.8234C62.3884 51.0218 61.9583 51.2946 61.6478 51.6417C61.3428 51.9888 61.1903 52.3835 61.1903 52.8252C61.1903 53.195 61.2965 53.513 61.509 53.7791C61.7268 54.0405 62.0043 54.2595 62.3423 54.4351C62.6798 54.6066 63.0338 54.7483 63.4044 54.861C63.7744 54.9695 64.1151 55.0573 64.4256 55.125L66.1248 55.5038C66.5607 55.5985 67.0451 55.7292 67.5787 55.8959C68.118 56.063 68.6331 56.2905 69.1232 56.5789C69.6185 56.863 70.0268 57.2285 70.3483 57.6751C70.6697 58.1211 70.8308 58.6692 70.8308 59.3183C70.8308 60.0669 70.5937 60.743 70.1195 61.3472C69.6511 61.9514 68.9648 62.4318 68.0611 62.7878C67.162 63.1444 66.0705 63.3222 64.7848 63.3222C63.5866 63.3222 62.5494 63.1624 61.6724 62.8423C60.8009 62.5217 60.1147 62.0757 59.6136 61.5028C59.118 60.9303 58.8375 60.2653 58.7721 59.5077H60.8635C60.918 60.0309 61.1304 60.4637 61.5008 60.8065C61.8766 61.1446 62.3507 61.397 62.9226 61.5636C63.4997 61.726 64.1208 61.8075 64.7848 61.8075C65.5586 61.8075 66.2527 61.7038 66.8681 61.4964C67.4835 61.2843 67.971 60.9912 68.3308 60.6171C68.69 60.2383 68.8695 59.796 68.8695 59.2913C68.8695 58.8316 68.7143 58.457 68.4043 58.1687C68.0937 57.8798 67.6854 57.6454 67.1786 57.465C66.6719 57.2846 66.1248 57.127 65.5363 56.9915L63.4779 56.5048C62.1704 56.1937 61.1359 55.7493 60.3734 55.1721C59.6109 54.5949 59.2296 53.84 59.2296 52.9067C59.2296 52.1311 59.4829 51.4545 59.9894 50.8775C60.5014 50.2959 61.1876 49.845 62.0484 49.5248C62.9143 49.2002 63.8812 49.0378 64.9484 49.0378C66.0264 49.0378 66.985 49.1979 67.8241 49.5181C68.6625 49.8337 69.3271 50.2666 69.8172 50.8166C70.3131 51.3667 70.5745 51.9914 70.602 52.6903H68.6408ZM73.2464 50.7152V49.2272H85.7953V50.7152H80.534V63.0788H78.5076V50.7152H73.2464Z" fill="white"/>
<path d="M41.1778 39.8187C38.6694 39.8187 37.4151 38.4417 37.4151 35.6878C37.4151 32.7082 38.9148 28.1711 41.914 22.0764C41.3141 22.1215 40.7143 22.1441 40.1144 22.1441C39.5146 22.1441 38.9148 22.1441 38.3149 22.1441C24.7365 22.1441 15.4661 20.2705 10.5037 16.5234C9.14041 15.5302 8.45874 14.5144 8.45874 13.4761C8.45874 11.3542 9.95839 9.54836 12.9576 8.05855C19.5014 4.80804 27.4903 3.18279 36.9243 3.18279C38.6694 3.18279 40.8506 3.27308 43.4682 3.45366C46.1402 3.5891 49.2485 3.81483 52.7931 4.13085C53.0658 3.76968 53.4202 3.3408 53.8565 2.84419C54.2927 2.30244 54.8107 1.69297 55.4106 1.01578C56.065 0.338596 57.3738 0 59.3369 0C60.0458 0 60.4003 0.112865 60.4003 0.338596L56.883 4.46945C62.118 4.87576 66.3715 5.07892 69.6434 5.07892C73.0246 5.07892 75.3693 4.83063 76.678 4.33401C77.0595 4.15342 77.3867 4.06313 77.6596 4.06313C78.1504 4.06313 78.3958 4.28886 78.3958 4.74032C78.3958 6.27527 74.9059 7.04276 67.9257 7.04276C64.3266 7.04276 60.0731 6.83961 55.1652 6.43329C51.348 11.0382 48.1851 15.6205 45.6767 20.1802C46.5492 20.1351 47.5853 20.0448 48.785 19.9093C50.0393 19.7739 52.0296 19.5482 54.7562 19.2322C56.7194 19.0064 58.4371 18.8258 59.9095 18.6904C61.3818 18.555 62.6361 18.4873 63.6722 18.4873C64.163 18.4873 64.4084 18.6227 64.4084 18.8936C64.4084 19.4353 63.9449 19.819 63.0178 20.0448L57.9463 20.7897C55.9832 21.0606 53.8292 21.3089 51.4843 21.5346C49.194 21.7603 46.9309 21.9183 44.6951 22.0086C41.2596 28.3742 39.5419 33.0468 39.5419 36.0264C39.5419 37.6517 40.1144 38.4643 41.2596 38.4643C41.6959 38.4643 42.3775 38.216 43.3046 37.7194C43.7953 37.4485 44.1498 37.2454 44.3679 37.1099C44.586 36.9745 44.7496 36.9068 44.8587 36.9068C45.295 36.9068 45.5131 37.1099 45.5131 37.5163C45.5131 38.0129 44.9678 38.5094 43.8771 39.0061C42.732 39.5478 41.8322 39.8187 41.1778 39.8187ZM39.5419 20.3157C40.0872 20.3157 40.6325 20.3157 41.1778 20.3157C41.7231 20.3157 42.2685 20.2931 42.8138 20.2479C45.5404 14.9659 48.376 10.2481 51.3207 6.0947C49.0849 5.91413 46.8491 5.80123 44.6133 5.7561C42.4321 5.6658 40.278 5.62067 38.1513 5.62067C20.8102 5.62067 12.1396 8.35201 12.1396 13.8147C12.1396 16.388 16.1477 18.2164 24.1639 19.2999C28.9082 19.9771 34.0341 20.3157 39.5419 20.3157Z" fill="white"/>
</svg>
