<svg width="153" height="181" viewBox="0 0 153 181" fill="none" xmlns="http://www.w3.org/2000/svg">
<path d="M49.5973 167.762C49.0659 167.762 48.3776 167.713 47.5322 167.617C46.6868 167.544 45.7932 167.412 44.8512 167.218C43.9092 167.024 43.0156 166.759 42.1702 166.421C41.3248 166.082 40.6365 165.659 40.1052 165.152C39.5738 164.621 39.3081 163.992 39.3081 163.267C39.3081 162.252 39.5979 161.406 40.1776 160.73C40.7573 160.029 41.494 159.462 42.3876 159.027C43.2812 158.592 44.2112 158.266 45.1773 158.048C46.1676 157.807 47.0612 157.662 47.8582 157.613C48.0997 157.178 48.4258 156.611 48.8364 155.91C49.2471 155.185 49.6938 154.411 50.1769 153.59C50.6841 152.744 51.1914 151.923 51.6986 151.126C52.2299 150.328 52.7251 149.616 53.184 148.987C53.6428 148.335 54.0294 147.851 54.3433 147.537C54.7056 147.199 55.08 146.97 55.4664 146.849C55.8771 146.728 56.3238 146.668 56.8069 146.668C57.0002 146.668 57.2658 146.716 57.604 146.813C57.9663 146.885 58.1595 147.03 58.1836 147.248C58.1353 147.465 57.9904 147.695 57.7489 147.936C57.5315 148.154 57.3504 148.347 57.2054 148.516C55.6113 150.28 54.2467 151.887 53.1115 153.336C52.0005 154.786 51.0223 156.2 50.1769 157.577C51.4812 157.601 52.8579 157.722 54.3071 157.939C55.7563 158.133 57.1933 158.434 58.6184 158.846C60.0434 159.232 61.3718 159.752 62.6036 160.404C63.8354 161.033 64.874 161.794 65.7194 162.687C66.3956 162.276 67.1323 161.769 67.9293 161.165C68.7505 160.537 69.5234 159.837 70.248 159.063C70.9967 158.289 71.6126 157.456 72.0957 156.562C72.5788 155.669 72.8203 154.75 72.8203 153.808C72.8203 152.527 72.4339 151.428 71.661 150.509C70.888 149.591 69.8736 148.83 68.6177 148.226C67.3618 147.622 66.0213 147.151 64.5962 146.813C63.1712 146.474 61.7825 146.233 60.4299 146.088C59.1015 145.943 57.9663 145.87 57.0243 145.87C55.1645 145.87 53.341 146.051 51.5536 146.414C49.7905 146.753 48.0273 147.235 46.2642 147.864C46.0227 147.936 45.6966 148.069 45.286 148.262C44.8995 148.431 44.513 148.589 44.1266 148.734C43.7402 148.878 43.4383 148.951 43.2209 148.951C42.6896 148.951 42.4238 148.697 42.4238 148.19C42.4238 147.706 42.7137 147.284 43.2933 146.921C43.873 146.559 44.6338 146.245 45.5758 145.979C46.5419 145.713 47.5805 145.508 48.6915 145.363C49.8025 145.194 50.8894 145.06 51.9522 144.964C53.0149 144.868 53.9569 144.807 54.7781 144.783C55.6235 144.734 56.2272 144.71 56.5895 144.71C57.5556 144.71 58.6667 144.77 59.9226 144.892C61.2028 144.988 62.5312 145.169 63.9079 145.435C65.3087 145.677 66.6613 146.028 67.9656 146.486C69.2939 146.921 70.4895 147.477 71.5523 148.154C72.6151 148.83 73.4603 149.652 74.0883 150.618C74.7405 151.584 75.0665 152.708 75.0665 153.989C75.0665 155.1 74.7888 156.164 74.2333 157.178C73.6777 158.193 72.9652 159.136 72.0957 160.005C71.2262 160.875 70.3205 161.66 69.3785 162.361C68.4366 163.037 67.567 163.606 66.77 164.065C66.8425 164.161 66.9028 164.27 66.9511 164.391C67.0236 164.512 67.0598 164.632 67.0598 164.753C67.0598 164.971 66.9028 165.08 66.5889 165.08C66.4923 165.08 66.3715 165.019 66.2266 164.898C66.0816 164.753 65.973 164.645 65.9005 164.572C63.292 165.828 60.6351 166.674 57.93 167.109C55.249 167.544 52.4715 167.762 49.5973 167.762ZM49.9233 166.892C52.4594 166.892 54.9713 166.566 57.459 165.913C59.971 165.261 62.3621 164.367 64.6325 163.231C63.5939 162.289 62.3017 161.479 60.7559 160.803C59.2343 160.102 57.6281 159.57 55.9374 159.208C54.2709 158.822 52.7009 158.628 51.2276 158.628C51.0102 158.628 50.7928 158.628 50.5755 158.628C50.3581 158.628 50.1528 158.641 49.9596 158.664L49.561 158.701C49.1504 159.402 48.7156 160.15 48.2568 160.948C47.822 161.745 47.4476 162.566 47.1337 163.412C46.8438 164.258 46.6989 165.092 46.6989 165.913C46.6989 166.299 46.5299 166.529 46.1917 166.602C46.8197 166.723 47.4356 166.795 48.0394 166.819C48.6674 166.868 49.2953 166.892 49.9233 166.892ZM45.3222 166.384C45.2014 166.263 45.1169 166.107 45.0686 165.913C45.0202 165.744 44.9961 165.574 44.9961 165.406C44.9961 165.019 45.0807 164.536 45.2497 163.956C45.4188 163.352 45.6241 162.724 45.8656 162.071C46.1314 161.395 46.385 160.766 46.6264 160.187C46.8922 159.607 47.1095 159.136 47.2786 158.773C46.5056 158.894 45.6845 159.136 44.815 159.498C43.9696 159.837 43.245 160.319 42.6412 160.948C42.0615 161.576 41.7717 162.374 41.7717 163.34C41.7717 163.871 41.977 164.355 42.3876 164.79C42.8224 165.201 43.3175 165.538 43.873 165.804C44.4286 166.071 44.9115 166.263 45.3222 166.384ZM85.6093 165.732C84.8364 165.732 84.2567 165.551 83.8703 165.188C83.4839 164.802 83.2303 164.318 83.1095 163.738C83.0129 163.159 82.9767 162.579 83.0008 161.999C82.6385 162.482 82.1916 163.014 81.6603 163.594C81.129 164.15 80.5493 164.632 79.9213 165.043C79.2933 165.454 78.6533 165.659 78.0011 165.659C77.518 165.659 77.1195 165.551 76.8056 165.333C76.4916 165.092 76.3346 164.717 76.3346 164.21C76.3346 163.364 76.6003 162.47 77.1316 161.528C77.6872 160.585 78.3875 159.692 79.2329 158.846C80.0783 157.976 80.9841 157.275 81.9501 156.743C82.9162 156.212 83.8219 155.946 84.6673 155.946C84.9088 155.946 85.247 155.995 85.6818 156.091C86.1165 156.187 86.5029 156.332 86.8411 156.526C87.2034 156.72 87.3845 156.985 87.3845 157.323C87.3845 157.492 87.2759 157.589 87.0585 157.613C86.8411 157.637 86.6841 157.71 86.5875 157.831C85.887 158.677 85.5368 160.042 85.5368 161.926C85.5368 162.168 85.549 162.494 85.5731 162.905C85.5972 163.316 85.6818 163.678 85.8267 163.992C85.9957 164.306 86.2493 164.463 86.5875 164.463C87.0947 164.463 87.6382 164.246 88.2178 163.811C88.7975 163.376 89.3772 162.856 89.9568 162.253C90.5365 161.624 91.0678 161.056 91.5509 160.549C91.5993 160.477 91.6475 160.44 91.6958 160.44C91.8166 160.44 91.9132 160.513 91.9857 160.658C92.0823 160.779 92.0823 160.888 91.9857 160.984C91.406 161.66 90.8385 162.265 90.2829 162.796C89.7516 163.327 89.196 163.835 88.6163 164.318C87.5053 165.261 86.5029 165.732 85.6093 165.732ZM79.9575 163.992C80.5131 163.678 81.0685 163.182 81.6241 162.506C82.2037 161.83 82.7472 161.056 83.2544 160.187C83.7857 159.317 84.2326 158.447 84.5949 157.577C84.0152 157.577 83.3631 157.795 82.6385 158.229C81.9139 158.641 81.2255 159.172 80.5734 159.824C79.9213 160.453 79.3778 161.116 78.9431 161.818C78.5325 162.494 78.3272 163.11 78.3272 163.666C78.3272 164.125 78.5083 164.355 78.8706 164.355C79.1363 164.355 79.4986 164.233 79.9575 163.992ZM84.3775 180.664C83.5805 180.664 82.7713 180.532 81.9501 180.266C81.129 180 80.4406 179.565 79.8851 178.961C79.3295 178.381 79.0518 177.632 79.0518 176.714C79.0518 175.675 79.3778 174.684 80.03 173.742C80.6821 172.799 81.5516 171.93 82.6385 171.132C83.7013 170.335 84.8968 169.61 86.2252 168.958C87.5295 168.305 88.8578 167.725 90.2104 167.218C91.563 166.734 92.8431 166.336 94.0508 166.022C95.2584 165.708 96.2849 165.491 97.1303 165.369C97.2993 164.79 97.4684 164.125 97.6375 163.376C97.8065 162.627 97.9635 161.878 98.1085 161.129C98.2775 160.355 98.4104 159.679 98.507 159.099C98.2171 159.63 97.8427 160.247 97.3839 160.948C96.925 161.649 96.4057 162.313 95.826 162.941C95.2463 163.57 94.6545 164.101 94.0508 164.536C93.4711 164.947 92.9035 165.152 92.348 165.152C91.6958 165.152 91.249 164.922 91.0075 164.463C90.7901 163.98 90.6814 163.461 90.6814 162.905C90.6814 162.494 90.766 162.011 90.935 161.455C91.1283 160.899 91.3698 160.368 91.6596 159.86C91.9736 159.329 92.3359 158.894 92.7465 158.556C93.1813 158.193 93.6281 158.012 94.087 158.012C94.2319 158.012 94.413 158.048 94.6304 158.121C94.8719 158.193 94.9927 158.326 94.9927 158.519C94.9927 158.616 94.8719 158.822 94.6304 159.136C94.413 159.449 94.1594 159.812 93.8696 160.223C93.5798 160.634 93.314 161.056 93.0726 161.491C92.8552 161.903 92.7465 162.289 92.7465 162.651C92.7465 162.845 92.7706 163.05 92.819 163.267C92.8673 163.485 93.0242 163.594 93.2899 163.594C93.7006 163.594 94.256 163.267 94.9565 162.615C95.657 161.963 96.3815 161.105 97.1303 160.042C97.879 158.954 98.5311 157.758 99.0866 156.453C99.135 156.164 99.3161 155.982 99.6301 155.91C99.944 155.814 100.222 155.765 100.463 155.765C100.608 155.765 100.814 155.801 101.079 155.874C101.369 155.946 101.514 156.079 101.514 156.272C101.514 156.635 101.429 157.227 101.26 158.048C101.091 158.869 100.886 159.764 100.645 160.73C100.403 161.673 100.161 162.566 99.9199 163.412C99.7025 164.258 99.5335 164.898 99.4127 165.333C99.6542 165.333 99.9683 165.357 100.355 165.406C100.765 165.43 101.128 165.514 101.442 165.659C101.756 165.804 101.913 166.046 101.913 166.384C101.913 166.505 101.876 166.566 101.804 166.566C101.78 166.566 101.744 166.553 101.695 166.529C101.647 166.529 101.586 166.529 101.514 166.529C101.031 166.288 100.512 166.167 99.9562 166.167C99.8354 166.167 99.7147 166.167 99.5939 166.167C99.4731 166.167 99.3524 166.179 99.2316 166.203C98.7243 167.822 98.0239 169.477 97.1303 171.168C96.2366 172.884 95.1618 174.454 93.9058 175.88C92.6499 177.306 91.2249 178.454 89.6308 179.323C88.0608 180.217 86.3098 180.664 84.3775 180.664ZM84.776 179.903C86.1044 179.903 87.3362 179.613 88.4714 179.033C89.6067 178.454 90.6331 177.68 91.5509 176.714C92.4929 175.748 93.3262 174.672 94.0508 173.488C94.7753 172.305 95.3912 171.084 95.8985 169.827C96.4057 168.571 96.7921 167.375 97.0578 166.239C96.3332 166.336 95.4275 166.529 94.3406 166.819C93.2778 167.133 92.1427 167.52 90.935 167.979C89.7273 168.463 88.5318 169.006 87.3483 169.61C86.1649 170.214 85.09 170.879 84.1239 171.603C83.1578 172.352 82.3849 173.138 81.8052 173.959C81.2255 174.78 80.9357 175.639 80.9357 176.533V177.112C80.9357 177.692 81.141 178.187 81.5516 178.598C81.938 179.033 82.4332 179.36 83.037 179.577C83.6167 179.795 84.1964 179.903 84.776 179.903ZM106.581 166.493C105.808 166.493 104.963 166.324 104.045 165.986C103.152 165.647 102.379 165.152 101.727 164.5C101.099 163.847 100.785 163.062 100.785 162.144C100.785 161.83 100.845 161.54 100.966 161.274C101.111 161.008 101.376 160.875 101.763 160.875C101.932 160.875 102.137 160.948 102.379 161.093C102.62 161.214 102.801 161.334 102.922 161.455C103.478 160.948 104.045 160.319 104.625 159.57C105.205 158.797 105.796 158.024 106.4 157.251C107.028 156.477 107.668 155.814 108.32 155.257C108.997 154.678 109.709 154.328 110.458 154.206C110.531 154.183 110.663 154.17 110.857 154.17C111.339 154.17 111.799 154.279 112.233 154.496C112.692 154.714 112.861 155.064 112.741 155.547C112.692 155.765 112.462 155.886 112.052 155.91C111.665 155.934 111.219 155.946 110.712 155.946C110.228 155.946 109.806 156.031 109.444 156.2C109.081 156.369 108.9 156.72 108.9 157.251C108.9 157.445 109.009 157.746 109.226 158.157C109.444 158.568 109.685 159.051 109.951 159.607C110.216 160.138 110.433 160.706 110.603 161.31C110.772 161.914 110.82 162.506 110.748 163.086C111.013 163.11 111.411 163.074 111.944 162.977C112.498 162.856 113.103 162.639 113.755 162.325C114.431 161.986 115.059 161.504 115.639 160.875C115.711 160.803 115.784 160.767 115.856 160.767C115.976 160.767 116.061 160.827 116.11 160.948C116.157 161.069 116.146 161.178 116.074 161.274C115.831 161.588 115.505 161.939 115.096 162.325C114.708 162.711 114.237 163.037 113.683 163.304C113.03 163.617 112.415 163.835 111.835 163.956C111.255 164.052 110.857 164.088 110.639 164.065C110.397 164.911 109.866 165.527 109.045 165.913C108.224 166.299 107.403 166.493 106.581 166.493ZM108.755 163.05V162.941C108.755 162.506 108.646 161.975 108.429 161.346C108.212 160.718 107.982 160.078 107.741 159.425C107.499 158.749 107.33 158.157 107.234 157.65C106.654 158.398 106.062 159.112 105.458 159.788C104.879 160.464 104.251 161.141 103.574 161.818C104.42 162.131 105.265 162.41 106.11 162.651C106.98 162.869 107.861 163.001 108.755 163.05ZM106.364 165.442C106.775 165.442 107.197 165.321 107.632 165.08C108.067 164.838 108.441 164.451 108.755 163.92C107.789 163.896 106.775 163.787 105.712 163.594C104.649 163.376 103.695 163.026 102.85 162.542C102.898 163.606 103.248 164.355 103.9 164.79C104.577 165.225 105.398 165.442 106.364 165.442Z" fill="white"/>
<path d="M0.5 135.042V105.388H18.2738V108.573H4.0895V118.593H16.9422V121.779H4.0895V135.042H0.5ZM49.4322 120.215C49.4322 123.342 48.8677 126.046 47.7387 128.323C46.6098 130.602 45.0611 132.359 43.0926 133.594C41.1242 134.829 38.8759 135.447 36.3479 135.447C33.8198 135.447 31.5715 134.829 29.6031 133.594C27.6346 132.359 26.0859 130.602 24.9571 128.323C23.8281 126.046 23.2636 123.342 23.2636 120.215C23.2636 117.088 23.8281 114.384 24.9571 112.106C26.0859 109.828 27.6346 108.071 29.6031 106.836C31.5715 105.6 33.8198 104.982 36.3479 104.982C38.8759 104.982 41.1242 105.6 43.0926 106.836C45.0611 108.071 46.6098 109.828 47.7387 112.106C48.8677 114.384 49.4322 117.088 49.4322 120.215ZM45.9585 120.215C45.9585 117.647 45.529 115.48 44.6703 113.714C43.8212 111.947 42.668 110.61 41.2111 109.703C39.7637 108.795 38.1426 108.342 36.3479 108.342C34.5531 108.342 32.9272 108.795 31.4702 109.703C30.0228 110.61 28.8697 111.947 28.011 113.714C27.1618 115.48 26.7373 117.647 26.7373 120.215C26.7373 122.782 27.1618 124.949 28.011 126.716C28.8697 128.483 30.0228 129.819 31.4702 130.727C32.9272 131.634 34.5531 132.088 36.3479 132.088C38.1426 132.088 39.7637 131.634 41.2111 130.727C42.668 129.819 43.8212 128.483 44.6703 126.716C45.529 124.949 45.9585 122.782 45.9585 120.215ZM55.4677 135.042V105.388H65.4835C67.7994 105.388 69.7003 105.784 71.1862 106.575C72.6722 107.357 73.7722 108.433 74.4862 109.804C75.2002 111.175 75.5573 112.734 75.5573 114.481C75.5573 116.228 75.2002 117.777 74.4862 119.129C73.7722 120.48 72.677 121.542 71.2006 122.315C69.7244 123.077 67.838 123.459 65.5415 123.459H57.4362V120.215H65.4257C67.0081 120.215 68.2818 119.984 69.2467 119.519C70.2213 119.056 70.9256 118.4 71.3599 117.551C71.8037 116.691 72.0256 115.668 72.0256 114.481C72.0256 113.293 71.8037 112.256 71.3599 111.368C70.916 110.48 70.2068 109.794 69.2322 109.312C68.2577 108.82 66.9695 108.573 65.3678 108.573H59.0572V135.042H55.4677ZM69.4204 121.721L76.7152 135.042H72.5468L65.3678 121.721H69.4204ZM81.5386 135.042V105.388H99.4281V108.573H85.128V118.593H98.5018V121.779H85.128V131.857H99.6597V135.042H81.5386ZM122.108 112.802C121.935 111.334 121.231 110.195 119.995 109.384C118.76 108.573 117.245 108.168 115.451 108.168C114.139 108.168 112.99 108.38 112.006 108.805C111.031 109.23 110.269 109.814 109.719 110.557C109.179 111.3 108.908 112.145 108.908 113.091C108.908 113.882 109.097 114.563 109.473 115.133C109.859 115.692 110.35 116.161 110.949 116.537C111.547 116.904 112.174 117.208 112.831 117.449C113.487 117.681 114.09 117.869 114.64 118.014L117.651 118.825C118.423 119.028 119.281 119.308 120.226 119.664C121.182 120.022 122.094 120.509 122.963 121.127C123.84 121.735 124.564 122.517 125.133 123.473C125.703 124.428 125.988 125.602 125.988 126.991C125.988 128.594 125.568 130.041 124.728 131.335C123.898 132.628 122.682 133.657 121.081 134.419C119.488 135.182 117.554 135.563 115.277 135.563C113.154 135.563 111.316 135.221 109.762 134.536C108.218 133.849 107.003 132.895 106.115 131.668C105.237 130.442 104.74 129.019 104.624 127.397H108.329C108.426 128.517 108.802 129.443 109.458 130.177C110.124 130.901 110.964 131.441 111.977 131.798C113 132.146 114.1 132.32 115.277 132.32C116.648 132.32 117.877 132.098 118.967 131.654C120.058 131.2 120.922 130.573 121.559 129.772C122.195 128.961 122.513 128.014 122.513 126.934C122.513 125.949 122.238 125.147 121.689 124.53C121.139 123.912 120.415 123.41 119.518 123.024C118.62 122.638 117.651 122.3 116.608 122.01L112.961 120.968C110.645 120.302 108.812 119.351 107.461 118.115C106.11 116.879 105.435 115.263 105.435 113.265C105.435 111.605 105.883 110.156 106.781 108.921C107.688 107.676 108.904 106.71 110.429 106.025C111.963 105.33 113.676 104.982 115.566 104.982C117.476 104.982 119.175 105.325 120.661 106.011C122.147 106.686 123.324 107.613 124.192 108.791C125.071 109.968 125.534 111.306 125.583 112.802H122.108ZM130.268 108.573V105.388H152.5V108.573H143.179V135.042H139.589V108.573H130.268Z" fill="white"/>
<path d="M73.4529 85.2457C69.0088 85.2457 66.7867 82.2978 66.7867 76.4021C66.7867 70.0232 69.4436 60.3099 74.7572 47.2621C73.6944 47.3587 72.6317 47.407 71.569 47.407C70.5062 47.407 69.4436 47.407 68.3808 47.407C44.3245 47.407 27.9004 43.3961 19.1088 35.3741C16.6935 33.2478 15.4858 31.0731 15.4858 28.8501C15.4858 24.3075 18.1427 20.4416 23.4563 17.2521C35.0497 10.2933 49.2033 6.81386 65.9172 6.81386C69.0088 6.81386 72.8732 7.00715 77.5106 7.39376C82.2445 7.68371 87.7514 8.16695 94.0312 8.84351C94.5143 8.07031 95.1422 7.15213 95.9152 6.08898C96.6881 4.92916 97.6058 3.62438 98.6686 2.17464C99.8279 0.724881 102.147 0 105.625 0C106.881 0 107.509 0.241626 107.509 0.724881L101.277 9.56839C110.552 10.4382 118.088 10.8732 123.884 10.8732C129.875 10.8732 134.029 10.3416 136.347 9.27844C137.023 8.89183 137.603 8.69854 138.086 8.69854C138.956 8.69854 139.39 9.18178 139.39 10.1483C139.39 13.4344 133.208 15.0775 120.841 15.0775C114.465 15.0775 106.929 14.6425 98.2338 13.7727C91.471 23.631 85.8675 33.441 81.4234 43.2027C82.9691 43.1061 84.8048 42.9128 86.9303 42.6228C89.1524 42.3329 92.6786 41.8496 97.5092 41.1731C100.987 40.6898 104.031 40.3032 106.639 40.0133C109.248 39.7233 111.47 39.5783 113.305 39.5783C114.175 39.5783 114.61 39.8683 114.61 40.4482C114.61 41.608 113.788 42.4295 112.146 42.9128L103.161 44.5075C99.683 45.0874 95.8668 45.619 91.7125 46.1022C87.6548 46.5855 83.6455 46.9237 79.6844 47.1171C73.5978 60.7448 70.5546 70.7481 70.5546 77.127C70.5546 80.6064 71.569 82.3461 73.5978 82.3461C74.3708 82.3461 75.5783 81.8146 77.2208 80.7514C78.0903 80.1715 78.7183 79.7366 79.1047 79.4466C79.4911 79.1567 79.7809 79.0117 79.9742 79.0117C80.7471 79.0117 81.1336 79.4466 81.1336 80.3165C81.1336 81.3797 80.1675 82.4428 78.2352 83.506C76.2063 84.6658 74.6123 85.2457 73.4529 85.2457ZM70.5546 43.4927C71.5206 43.4927 72.4868 43.4927 73.4529 43.4927C74.419 43.4927 75.3852 43.4443 76.3513 43.3477C81.1819 32.0396 86.2057 21.9397 91.4227 13.0478C87.4616 12.6612 83.5006 12.4195 79.5395 12.3229C75.675 12.1296 71.8588 12.033 68.091 12.033C37.3684 12.033 22.0071 17.8804 22.0071 29.575C22.0071 35.0841 29.1081 38.9984 43.31 41.3181C51.7153 42.7678 60.7967 43.4927 70.5546 43.4927Z" fill="white"/>
</svg>
